<svg xmlns="http://www.w3.org/2000/svg" viewBox="0 0 612 396" width="612" height="396"><rect x="0" y="0" width="613" height="397" fill="#ffffff"/><path d="M 150 146 L 150 46 " transform="translate(0.5 0)" fill="none" stroke="#000000" stroke-width="1" stroke-linecap="butt" stroke-linejoin="miter"/><path d="M 150 146 L 400 146 " fill="none" stroke="#000000" stroke-width="4" stroke-linecap="butt" stroke-linejoin="miter" stroke-dasharray="4 6" stroke-dashoffset="0"/><path d="M 200 96 L 250 96 L 250 21 L 200 21 Z " transform="translate(0.5 0.5)" fill="#80BFFF" stroke="#FF0000" stroke-width="1" stroke-linecap="butt" stroke-linejoin="miter"/><path d="M 300 96 C 300 -4 400 -4 400 96 Z " fill="#B3B3B3" stroke="#801A33" stroke-width="1" stroke-linecap="butt" stroke-linejoin="miter"/><text transform="matrix(1 0 0 1 100 296)" font-size="24" text-rendering="geometricPrecision" font-family="Helvetica, Arial, sans-serif" fill="#000000"><tspan x="0 17.328 30.672 36 41.328 54.672 77.328 90.672 98.664 103.992" y="0 0 0 0 0 0 0 0 0 0" xml:space="preserve">HelloWorld</tspan></text></svg>